<!-- icon666.com - MILLIONS vector ICONS FREE --><svg id="Layer_1" enable-background="new 0 0 60 60" viewBox="0 0 60 60" xmlns="http://www.w3.org/2000/svg" xmlns:xlink="http://www.w3.org/1999/xlink"><clipPath id="SVGID_2_"><path id="SVGID_1_" d="m0 0h60v60h-60z" fill="#000000" style="fill: rgb(255, 255, 255);"></path></clipPath><g><g clip-path="url(#SVGID_2_)"><g><path d="m30 38.8c-7.6 0-13.8-6.2-13.8-13.8s6.2-13.8 13.8-13.8 13.8 6.2 13.8 13.8-6.2 13.8-13.8 13.8zm0-25c-6.2 0-11.2 5-11.2 11.2s5 11.2 11.2 11.2 11.2-5 11.2-11.2-5-11.2-11.2-11.2z" fill="#000000" style="fill: rgb(255, 255, 255);"></path></g><g><path d="m30 59.9-17.1-16.7c-5-4.7-7.9-11.3-7.9-18.2 0-13.8 11.2-25 25-25s25 11.2 25 25c0 6.9-2.9 13.5-7.9 18.2zm0-57.4c-12.4 0-22.5 10.1-22.5 22.5 0 6.3 2.5 12.1 7.1 16.4l15.4 15 15.4-14.9c4.6-4.3 7.1-10.1 7.1-16.4 0-12.5-10.1-22.6-22.5-22.6z" fill="#000000" style="fill: rgb(255, 255, 255);"></path></g></g></g></svg> 