<!-- icon666.com - MILLIONS vector ICONS FREE --><svg id="Layer_1" viewBox="0 0 512 512" xmlns="http://www.w3.org/2000/svg" data-name="Layer 1"><path d="m266.163 244.86a16.334 16.334 0 0 0 11.543-27.878l-6.354-6.339 20.453-34.143 3.609 3.59a16.174 16.174 0 0 0 22.849-22.9l-40.458-40.374a16.2 16.2 0 0 0 -22.878.033 16.193 16.193 0 0 0 .019 22.878l3.448 3.444-34.094 20.529-6.3-6.285a16.226 16.226 0 0 0 -11.533-4.765h-.019a16.331 16.331 0 0 0 -11.519 27.883l24.869 24.808-28.76 28.821a7 7 0 1 0 9.91 9.892l28.76-28.822 24.93 24.859a16.269 16.269 0 0 0 11.529 4.769zm-1.33-118.116a2.192 2.192 0 0 1 3.08 0l40.463 40.356a2.216 2.216 0 0 1 .01 3.081 2.238 2.238 0 0 1 -3.09 0l-40.463-40.361a2.2 2.2 0 0 1 0-3.076zm3.783 26.619 12.984 12.948-20.462 34.143-26.619-26.562 34.1-20.529zm-64.483 15.609a2.324 2.324 0 0 1 .684-1.651 2.274 2.274 0 0 1 1.637-.67 2.3 2.3 0 0 1 1.651.67l59.709 59.572a2.278 2.278 0 0 1 .67 1.637 2.3 2.3 0 0 1 -.67 1.651 2.356 2.356 0 0 1 -3.288 0l-59.709-59.568a2.293 2.293 0 0 1 -.684-1.641zm171.373 10.141a119.5 119.5 0 1 1 -119.5-119.5 119.638 119.638 0 0 1 119.5 119.5zm-225 0a105.5 105.5 0 1 1 105.5 105.5 105.614 105.614 0 0 1 -105.5-105.5zm249.467 213.752c22.161 12.646 33.874 28.048 33.874 44.548 0 21.118-19.34 40.411-54.464 54.3-33.067 13.079-76.889 20.287-123.376 20.287s-90.323-7.208-123.4-20.288c-35.119-13.888-54.459-33.181-54.459-54.3 0-16.519 11.75-31.949 33.973-44.61 18.321-10.429 42.949-18.58 71.6-23.76l-53.374-67.879c-29.821-37.953-46.847-83.072-47.92-127.063-1.151-47.256 15.618-89.616 48.487-122.484a177.388 177.388 0 0 1 250.181 0c32.869 32.868 49.629 75.228 48.478 122.484-1.066 43.992-18.1 89.111-47.931 127.065l-53.369 67.879c28.713 5.189 53.384 13.359 71.7 23.822zm-25.736 85.827c28.986-11.472 45.609-26.51 45.609-41.279 0-23.463-41.652-46.369-101.413-55.851l-56.926 72.408a6.992 6.992 0 0 1 -11.014 0l-56.931-72.408c-59.762 9.482-101.409 32.378-101.409 55.851 0 14.769 16.633 29.807 45.624 41.279 31.459 12.449 73.446 19.308 118.23 19.308s86.757-6.859 118.23-19.308z" fill="#ffc107" fill-rule="evenodd" style="fill: rgb(255, 255, 255);"></path></svg>